<?xml version="1.0" standalone="no"?>
<!DOCTYPE svg PUBLIC "-//W3C//DTD SVG 20010904//EN"
 "http://www.w3.org/TR/2001/REC-SVG-20010904/DTD/svg10.dtd">
<svg version="1.0" xmlns="http://www.w3.org/2000/svg"
 width="333.000000pt" height="333.000000pt" viewBox="0 0 333.000000 333.000000"
 preserveAspectRatio="xMidYMid meet">
<metadata>
Created by potrace 1.11, written by Peter Selinger 2001-2013
</metadata>
<g transform="translate(0.000000,333.000000) scale(0.100000,-0.100000)"
fill="#000000" stroke="none">
<path d="M1785 2489 c-73 -9 -141 -19 -220 -30 -38 -6 -86 -12 -105 -14 -19
-2 -64 -8 -100 -14 -36 -5 -85 -13 -110 -16 -25 -3 -56 -8 -70 -10 -14 -3 -38
-7 -55 -9 -16 -3 -61 -10 -100 -16 -38 -6 -88 -14 -110 -17 -163 -21 -309 -50
-313 -62 -6 -17 50 -12 288 28 91 15 167 26 169 25 5 -4 -15 -37 -177 -301
-109 -177 -142 -224 -162 -228 -32 -7 -50 -10 -137 -25 -39 -6 -80 -18 -90
-25 -17 -13 -16 -14 11 -15 16 0 67 7 113 16 46 8 88 14 92 12 5 -2 -45 -84
-111 -183 -66 -99 -127 -195 -135 -214 -41 -97 49 -132 228 -86 155 39 499
174 499 195 0 18 -27 11 -156 -41 -247 -98 -456 -158 -509 -145 -58 15 -45 45
123 297 l130 196 49 7 c26 4 55 9 63 11 8 1 92 17 185 34 231 44 276 54 276
66 -1 13 -24 13 -96 -1 -33 -7 -78 -15 -100 -18 -22 -4 -51 -9 -65 -11 -190
-36 -286 -52 -288 -50 -2 1 61 106 140 233 79 127 150 244 159 260 16 28 21
30 140 46 68 9 133 18 144 20 11 2 43 7 70 10 28 4 82 11 120 17 39 5 90 12
115 15 25 3 56 7 70 9 14 2 68 6 120 10 109 7 124 11 115 26 -7 11 -118 10
-210 -2z"/>
<path d="M2615 2224 c-19 -42 -47 -102 -61 -134 -29 -64 -25 -62 -174 -91 -30
-6 -65 -12 -77 -15 -50 -9 -71 -13 -153 -29 -97 -18 -134 -31 -125 -44 6 -11
1 -12 235 35 96 19 192 37 212 40 l38 6 -34 -74 c-107 -236 -207 -512 -209
-578 -2 -39 1 -45 20 -48 12 -2 34 3 50 11 33 18 129 111 193 187 25 29 50 58
55 64 6 6 31 37 57 68 38 45 45 57 32 62 -22 8 -24 7 -110 -97 -115 -137 -258
-276 -262 -255 -5 28 73 245 168 468 l88 205 137 27 c180 35 187 37 179 49 -8
14 -77 6 -218 -26 -38 -8 -71 -14 -73 -12 -3 4 31 87 74 174 24 51 25 83 3 83
-6 0 -26 -34 -45 -76z"/>
<path d="M2169 1890 c-9 -5 -33 -49 -54 -97 -20 -49 -42 -93 -49 -99 -6 -6
-40 -26 -76 -45 -36 -18 -77 -41 -92 -52 -16 -10 -28 -16 -28 -12 0 3 18 41
40 85 22 44 40 82 40 85 0 21 -41 -6 -102 -68 -75 -75 -165 -131 -188 -117
-17 10 -5 55 21 81 19 19 18 39 -3 39 -6 0 -52 -20 -103 -44 l-92 -43 29 76
c38 101 46 151 25 151 -9 0 -24 -14 -32 -30 -14 -28 -17 -29 -31 -15 -58 57
-204 -49 -204 -149 0 -61 92 -60 163 2 20 18 22 6 4 -37 -9 -21 -44 -52 -113
-100 -183 -126 -330 -284 -322 -347 4 -35 41 -47 95 -31 116 34 229 158 328
358 37 75 39 77 113 113 l75 37 -6 -29 c-16 -82 69 -85 192 -8 l42 27 -22 -38
c-16 -29 -54 -58 -153 -122 -229 -144 -376 -276 -376 -337 0 -59 106 -76 186
-29 89 52 207 188 314 361 24 40 51 76 60 81 44 27 192 105 194 101 3 -3 -59
-145 -167 -388 -19 -43 -25 -66 -18 -73 13 -13 38 6 47 36 3 12 42 95 85 185
75 152 99 183 113 147 9 -25 74 -19 115 12 40 31 52 43 85 93 36 55 41 91 16
123 -38 48 -97 32 -173 -48 -16 -16 -25 -23 -20 -15 5 8 20 43 33 78 12 34 27
65 31 68 11 6 12 44 2 44 -5 0 -15 -5 -24 -10z m-722 -132 c10 -16 5 -49 -10
-67 -22 -27 -90 -71 -110 -71 -17 0 -19 5 -13 32 14 73 107 146 133 106z m849
-11 c4 -32 -25 -86 -74 -137 -54 -56 -88 -65 -98 -26 -9 36 21 90 79 142 52
47 88 55 93 21z m-941 -314 c-74 -134 -151 -224 -225 -263 -131 -68 -106 17
50 172 66 65 201 171 208 163 3 -2 -13 -35 -33 -72z m374 1 c-32 -58 -127
-183 -178 -234 -65 -66 -125 -103 -167 -103 -94 0 -60 69 96 195 54 43 252
178 262 178 4 0 -2 -16 -13 -36z"/>
<path d="M534 989 c-3 -5 4 -9 15 -9 19 0 21 -6 21 -75 0 -42 4 -75 10 -75 5
0 9 26 9 58 -2 88 -1 92 23 92 12 0 18 3 14 8 -11 10 -85 11 -92 1z"/>
<path d="M770 993 c-56 -22 -69 -97 -25 -142 51 -52 145 -16 145 55 0 46 -9
63 -41 79 -29 15 -53 18 -79 8z m85 -37 c18 -18 23 -31 19 -52 -6 -34 -39 -64
-71 -64 -21 0 -62 30 -64 48 0 4 -2 15 -4 26 -5 25 38 66 70 66 14 0 37 -11
50 -24z"/>
<path d="M1019 994 c-1 -5 -1 -38 -1 -74 1 -55 4 -67 24 -82 23 -17 50 -16 76
4 13 11 18 158 4 158 -4 0 -8 -30 -9 -66 -2 -65 -14 -94 -38 -94 -25 0 -39 33
-40 91 0 32 -4 61 -8 65 -4 4 -8 3 -8 -2z"/>
<path d="M1264 988 c-4 -6 -7 -41 -6 -77 1 -84 0 -81 11 -81 5 0 8 28 7 63 -1
34 0 68 2 75 6 17 48 15 66 -4 21 -20 5 -51 -29 -60 -21 -5 -23 -8 -10 -21 8
-7 21 -24 30 -35 20 -30 30 -15 10 15 -15 24 -15 26 3 36 50 27 22 92 -41 97
-20 2 -39 -2 -43 -8z"/>
<path d="M1789 971 c-27 -28 -30 -36 -24 -68 8 -43 24 -61 66 -73 36 -11 82 8
99 39 17 32 12 36 -45 37 -30 0 -55 -3 -55 -8 0 -4 21 -8 48 -8 l47 -1 -28
-24 c-35 -31 -57 -31 -91 0 -66 62 17 152 92 99 28 -19 35 -15 17 9 -8 11 -31
21 -54 24 -35 5 -44 2 -72 -26z"/>
<path d="M2058 988 c-10 -28 -1 -129 13 -142 27 -27 56 -28 78 -5 17 19 21 36
21 91 0 43 -4 67 -10 63 -5 -3 -9 -33 -9 -66 1 -59 -11 -89 -36 -89 -25 0 -40
34 -41 92 -1 58 -7 81 -16 56z"/>
<path d="M2300 1000 c-6 -18 -4 -163 2 -167 9 -5 10 4 12 85 1 44 -9 99 -14
82z"/>
<path d="M2440 913 l0 -83 45 0 c35 0 52 6 70 25 31 30 33 82 5 113 -23 25
-20 23 -77 27 l-43 2 0 -84z m105 41 c20 -21 22 -30 14 -56 -9 -34 -23 -47
-51 -49 -10 -1 -25 -2 -34 -3 -14 -1 -17 9 -16 59 0 33 1 63 1 68 2 18 63 6
86 -19z"/>
<path d="M2715 975 c-17 -27 -13 -124 6 -136 19 -12 82 -12 74 0 -3 6 -14 8
-25 6 -22 -4 -50 19 -50 41 0 8 7 15 15 15 28 3 33 4 41 12 4 4 -7 7 -24 7
-32 0 -39 11 -26 44 4 10 18 16 41 16 20 0 32 4 28 10 -11 17 -67 7 -80 -15z"/>
</g>
</svg>
